<?xml version="1.0" encoding="UTF-8"?>
<svg id="Layer_1" data-name="Layer 1" xmlns="http://www.w3.org/2000/svg" viewBox="0 0 210.39 309.32">
  <defs>
    <style>
      .cls-1 {
        fill: #2f4a9f;
      }
    </style>
  </defs>
  <path class="cls-1" d="M104.61,309.32c-19.6-29.41-38.37-54.34-53.58-81.27-17.03-30.14-33.92-61.01-45.38-93.5C-13.69,79.7,18.44,22.14,74.22,4.76c54.27-16.9,113.83,12.54,130.55,66.64,4.95,16.02,7.81,35.4,3.57,51.06-18.59,68.74-58.85,126.08-103.73,186.85Zm1.36-124.52c44.05-.28,80-36.63,79.71-80.6-.29-43.61-37.3-80.1-80.88-79.74-43.74,.36-79.79,37-79.63,80.91,.16,43.83,36.66,79.71,80.79,79.43Z"/>
  <path class="cls-1" d="M136.7,83c.13,19.71-14.15,37.31-30.65,37.79-16.76,.48-32.61-18.1-32.4-38.01,.19-18.16,14.11-33.19,31.02-33.49,17.93-.32,31.9,14.38,32.03,33.71Z"/>
  <path class="cls-1" d="M104.6,169.9c-8.28-1.99-16.62-2.89-23.95-6.11-6.04-2.65-17.12-3.6-12.45-15.12,4.28-10.55,9.48-20.49,23.97-19.32,8.93,.72,18,.48,26.96-.07,14.42-.89,19.59,9.33,23.65,19.85,4.4,11.39-6.99,12.24-12.88,14.79-7.78,3.37-16.71,4.08-25.31,5.98Z"/>
</svg>