<svg xmlns="http://www.w3.org/2000/svg" xmlns:xlink="http://www.w3.org/1999/xlink" viewBox="0 0 500 500"><defs><linearGradient id="a" x1="115.22" y1="194.13" x2="284.98" y2="313.88" gradientUnits="userSpaceOnUse"><stop offset="0" stop-color="#fadf4f"/><stop offset="0.99" stop-color="#fac42c"/></linearGradient><linearGradient id="b" x1="380.47" y1="173.95" x2="219.37" y2="285.52" gradientUnits="userSpaceOnUse"><stop offset="0" stop-color="#fadf50"/><stop offset="0.99" stop-color="#fac42d"/></linearGradient><linearGradient id="c" x1="318.92" y1="142.85" x2="333.35" y2="186.61" gradientUnits="userSpaceOnUse"><stop offset="0" stop-color="#fadf4f" stop-opacity="0"/><stop offset="0" stop-color="#fadf50" stop-opacity="0"/><stop offset="0.06" stop-color="#fce986" stop-opacity="0.21"/><stop offset="0.12" stop-color="#fdf0b1" stop-opacity="0.37"/><stop offset="0.17" stop-color="#fef6d0" stop-opacity="0.49"/><stop offset="0.22" stop-color="#fff9e2" stop-opacity="0.56"/><stop offset="0.25" stop-color="#fffae9" stop-opacity="0.59"/><stop offset="0.32" stop-color="#fff9e5" stop-opacity="0.58"/><stop offset="0.38" stop-color="#fff5d8" stop-opacity="0.54"/><stop offset="0.43" stop-color="#feefc2" stop-opacity="0.47"/><stop offset="0.48" stop-color="#fde6a3" stop-opacity="0.37"/><stop offset="0.53" stop-color="#fcdb7c" stop-opacity="0.25"/><stop offset="0.57" stop-color="#fbcd4c" stop-opacity="0.1"/><stop offset="0.6" stop-color="#fac42c" stop-opacity="0"/></linearGradient><linearGradient id="d" x1="279.95" y1="211.3" x2="295.26" y2="249.74" gradientUnits="userSpaceOnUse"><stop offset="0.05" stop-color="#fadf4f" stop-opacity="0"/><stop offset="0.09" stop-color="#fbe571" stop-opacity="0.14"/><stop offset="0.15" stop-color="#fcec9c" stop-opacity="0.3"/><stop offset="0.21" stop-color="#fef2bd" stop-opacity="0.44"/><stop offset="0.27" stop-color="#fef7d5" stop-opacity="0.53"/><stop offset="0.32" stop-color="#fff9e4" stop-opacity="0.59"/><stop offset="0.36" stop-color="#fffae9" stop-opacity="0.61"/><stop offset="0.42" stop-color="#fff6dc" stop-opacity="0.57"/><stop offset="0.52" stop-color="#feedba" stop-opacity="0.46"/><stop offset="0.66" stop-color="#fcdd83" stop-opacity="0.28"/><stop offset="0.81" stop-color="#fac737" stop-opacity="0.03"/><stop offset="0.84" stop-color="#fac42c" stop-opacity="0"/></linearGradient><linearGradient id="e" x1="216.1" y1="219.45" x2="239.19" y2="277.39" gradientUnits="userSpaceOnUse"><stop offset="0.13" stop-color="#fadf4f" stop-opacity="0"/><stop offset="0.22" stop-color="#fce77f" stop-opacity="0.19"/><stop offset="0.34" stop-color="#fdf1b8" stop-opacity="0.41"/><stop offset="0.43" stop-color="#fff8dc" stop-opacity="0.55"/><stop offset="0.47" stop-color="#fffae9" stop-opacity="0.6"/><stop offset="0.52" stop-color="#fff7de" stop-opacity="0.57"/><stop offset="0.59" stop-color="#feefc2" stop-opacity="0.48"/><stop offset="0.68" stop-color="#fde193" stop-opacity="0.33"/><stop offset="0.78" stop-color="#fbcf53" stop-opacity="0.12"/><stop offset="0.84" stop-color="#fac42c" stop-opacity="0"/></linearGradient><linearGradient id="f" x1="155.32" y1="139.22" x2="175.97" y2="191.29" gradientUnits="userSpaceOnUse"><stop offset="0" stop-color="#fadf4f" stop-opacity="0"/><stop offset="0.02" stop-color="#fbe570" stop-opacity="0.13"/><stop offset="0.04" stop-color="#fcea90" stop-opacity="0.25"/><stop offset="0.06" stop-color="#fdefac" stop-opacity="0.36"/><stop offset="0.09" stop-color="#fef3c3" stop-opacity="0.44"/><stop offset="0.12" stop-color="#fef6d4" stop-opacity="0.51"/><stop offset="0.16" stop-color="#fff8e0" stop-opacity="0.56"/><stop offset="0.22" stop-color="#fffae7" stop-opacity="0.58"/><stop offset="0.37" stop-color="#fffae9" stop-opacity="0.59"/><stop offset="0.42" stop-color="#fff8e2" stop-opacity="0.57"/><stop offset="0.5" stop-color="#fef2cc" stop-opacity="0.5"/><stop offset="0.58" stop-color="#fde8a9" stop-opacity="0.39"/><stop offset="0.67" stop-color="#fcda79" stop-opacity="0.24"/><stop offset="0.76" stop-color="#fac83b" stop-opacity="0.05"/><stop offset="0.78" stop-color="#fac42c" stop-opacity="0"/></linearGradient><linearGradient id="g" x1="265.06" y1="286.62" x2="276.13" y2="317.03" gradientUnits="userSpaceOnUse"><stop offset="0.13" stop-color="#fadf4f" stop-opacity="0"/><stop offset="0.28" stop-color="#fce883" stop-opacity="0.19"/><stop offset="0.43" stop-color="#fdf0af" stop-opacity="0.36"/><stop offset="0.56" stop-color="#fef5cf" stop-opacity="0.47"/><stop offset="0.67" stop-color="#fff9e2" stop-opacity="0.54"/><stop offset="0.75" stop-color="#fffae9" stop-opacity="0.57"/><stop offset="0.79" stop-color="#fff8e3" stop-opacity="0.55"/><stop offset="0.83" stop-color="#fef3d1" stop-opacity="0.5"/><stop offset="0.87" stop-color="#feebb4" stop-opacity="0.41"/><stop offset="0.92" stop-color="#fddf8b" stop-opacity="0.29"/><stop offset="0.97" stop-color="#fbd056" stop-opacity="0.13"/><stop offset="1" stop-color="#fac42c" stop-opacity="0"/></linearGradient><linearGradient id="h" x1="222.69" y1="292.23" x2="247.06" y2="362.76" gradientUnits="userSpaceOnUse"><stop offset="0.13" stop-color="#fadf4f" stop-opacity="0"/><stop offset="0.21" stop-color="#fce881" stop-opacity="0.18"/><stop offset="0.29" stop-color="#fdf0ae" stop-opacity="0.34"/><stop offset="0.36" stop-color="#fef5ce" stop-opacity="0.46"/><stop offset="0.43" stop-color="#fff9e2" stop-opacity="0.53"/><stop offset="0.47" stop-color="#fffae9" stop-opacity="0.56"/><stop offset="0.53" stop-color="#fff8e3" stop-opacity="0.54"/><stop offset="0.6" stop-color="#fef3d1" stop-opacity="0.49"/><stop offset="0.67" stop-color="#feebb3" stop-opacity="0.4"/><stop offset="0.75" stop-color="#fcdf89" stop-opacity="0.28"/><stop offset="0.83" stop-color="#fbcf54" stop-opacity="0.12"/><stop offset="0.87" stop-color="#fac42c" stop-opacity="0"/></linearGradient></defs><path d="M496.6,228.47l.29-.54L357.8,155.1l-3.61,6.9c-11.12,4.09-27.33,14.65-27.33,14.65l-31.17,34.47-31.11,79.94-11.52,32.88-9.55,16.9,1.61,29.44,66,34.54L311,405,575.8,545.3,689.49,330.64Z" style="opacity:0.32"/><polygon points="246.62 233.31 182.84 157.31 138.81 157.31 138.78 157.35 212.82 245.59 212.82 331.35 246.01 370.9 246.6 370.9 246.6 242.05 246.62 242.03 246.62 233.31" style="fill:url(#a)"/><polygon points="361.22 155.13 361.19 155.1 317.16 155.1 253.38 231.09 253.38 239.81 253.4 239.83 253.4 324.65 287.18 284.4 287.18 243.37 361.22 155.13" style="fill:url(#b)"/><polygon points="361.19 155.1 317.16 155.1 293.86 182.86 360.57 155.91 361.22 155.13 361.19 155.1" style="fill:url(#c)"/><polygon points="265 217.26 253.38 231.09 253.38 239.81 253.4 239.83 253.4 262.49 287.18 252.96 287.18 243.37 322.76 200.96 265 217.26" style="fill:url(#d)"/><polygon points="212.82 245.59 212.82 273.94 246.6 264.41 246.6 242.05 246.62 242.03 246.62 233.31 239.24 224.52 203.58 234.58 212.82 245.59" style="fill:url(#e)"/><polygon points="138.81 157.31 138.78 157.35 163.39 186.67 189.26 164.96 182.84 157.31 138.81 157.31" style="fill:url(#f)"/><polygon points="253.4 324.65 287.18 284.4 287.18 277.34 253.4 290.99 253.4 324.65" style="fill:url(#g)"/><polygon points="246.6 293.74 212.82 307.38 212.82 331.35 235.03 357.81 246.6 353.14 246.6 293.74" style="fill:url(#h)"/></svg>