<?xml version="1.0" encoding="UTF-8"?>
<svg id="Layer_1" data-name="Layer 1" xmlns="http://www.w3.org/2000/svg" viewBox="0 0 210.4 309.32">
  <defs>
    <style>
      .cls-1 {
        fill: #2f4a9f;
      }

      .cls-2 {
        fill: #bfb500;
      }
    </style>
  </defs>
  <path class="cls-2" d="M104.61,309.32c-19.6-29.41-38.37-54.34-53.58-81.27-17.03-30.14-33.92-61.01-45.38-93.5C-13.69,79.7,18.44,22.14,74.22,4.76c54.27-16.9,113.83,12.54,130.55,66.64,4.95,16.02,7.81,35.4,3.57,51.06-18.59,68.74-58.85,126.08-103.73,186.85h0Zm1.36-124.51c44.05-.28,80-36.63,79.71-80.6-.29-43.61-37.3-80.1-80.88-79.74-43.74,.36-79.79,37-79.63,80.91,.16,43.83,36.66,79.71,80.79,79.43h.01Z"/>
  <g>
    <path class="cls-1" d="M66.2,90.33c-.61-.34-.4-.7-.12-1.21,.61-1.12,1.1-2.3,1.64-3.45,.56-1.2,1.12-2.4,1.68-3.6,.52-1.1,1.08-2.18,1.58-3.29,.74-1.65,1.95-2.93,3.17-4.24,1.18-1.26,2.67-1.89,4.14-2.59,.79-.38,1.74-.4,2.57-.7,1.75-.63,3.54-.29,5.3-.29,14.32-.04,28.64-.04,42.96,.02,1.1,0,2.23,.48,3.3,.87,1.06,.38,2.08,.87,3.06,1.43,.54,.31,.94,.87,1.41,1.3,1.59,1.42,2.85,3.14,3.65,5.06,.72,1.7,1.71,3.26,2.33,4.97,.54,1.48,1.32,2.81,1.98,4.21,.22,.45,.27,.98,.46,1.71-.68-.15-1.25-.29-1.81-.4-.21-.04-.43-.04-.65-.05-2.67-.11-5.38,0-8.01-.41-1.85-.28-3.69,.08-5.47-.3-2.36-.5-4.73,.06-7.03-.33-3.15-.54-6.3,0-9.43-.31-6.74-.68-13.48-.15-20.23-.28-2.45-.05-4.95-.04-7.35,.38-2.12,.37-4.24-.08-6.29,.31-1.89,.35-3.76,.17-5.64,.29-.86,.05-1.77,.06-2.57,.35-1.33,.49-2.67,.18-3.99,.3-.21,.02-.41,.15-.67,.25Z"/>
    <path class="cls-1" d="M85.58,107.58h40c-.17,.34-.32,.58-.41,.84-.66,1.82-1.7,3.45-2.6,5.14-.62,1.18-1.15,2.43-2.27,3.26-.12,.09-.22,.26-.34,.28-.97,.13-1.94,.33-2.91,.33-7.58,.03-15.16,.03-22.74,0-1.08,0-2.21-.06-3.22-.38-.61-.19-1.17-.87-1.52-1.47-.92-1.54-1.71-3.16-2.55-4.75-.49-.93-.96-1.87-1.43-2.81-.05-.11,0-.26,0-.44Z"/>
    <path class="cls-1" d="M131.8,114.59c-.15-1.36,.09-2.44,.55-3.52,.4-.92,.58-1.96,1.08-2.82,.52-.9,1.15-1.73,2.32-2.07,1.02-.29,1.93-.95,2.91-1.4,.75-.34,1.55-.57,2.31-.88,.87-.34,1.72-.71,2.58-1.06,.48-.2,.96-.41,1.46-.58,1-.34,2-.71,3.03-.95,.89-.21,1.84-.42,2.72-.31,.51,.06,1.08,.67,1.39,1.18,.54,.89,1.06,1.86,1.28,2.86,.17,.81-.13,1.71-.19,2.57-.06,1.04-.67,1.73-1.38,2.39-.48,.45-.91,.75-1.64,.88-1.51,.25-2.97,.83-4.46,1.24-.57,.16-1.16,.26-1.75,.34-.97,.13-1.94,.19-2.9,.36-.62,.11-1.21,.35-1.81,.53-.15,.04-.3,.09-.45,.11-.94,.12-1.88,.22-2.82,.34-.86,.11-1.72,.19-2.57,.34-.54,.09-1.07,.27-1.67,.43Z"/>
    <path class="cls-1" d="M79.18,114.56c-1.21-.23-2.42-.47-3.64-.7-.16-.03-.33,0-.49-.04-.95-.21-1.9-.43-2.84-.64-.05-.01-.11,0-.16-.02-1.05-.11-2.11-.17-3.15-.35-.77-.13-1.51-.43-2.27-.61-.6-.15-1.22-.22-1.83-.36-.82-.19-1.62-.41-2.44-.62-.52-.13-1.06-.36-1.58-.35-1.38,.03-1.92-1.1-2.54-1.92-.69-.93-.87-2.17-.71-3.37,.06-.43,.16-.86,.33-1.25,.38-.86,.48-1.83,1.28-2.53,1.11-.98,1.35-1.05,2.82-.55,.99,.33,2.07,.42,3.08,.72,1.02,.29,2.01,.69,3,1.07,1.03,.39,2.05,.8,3.06,1.23,1.31,.57,2.58,1.24,3.91,1.75,.82,.31,1.45,.77,2.01,1.42,.85,.98,1.45,2.05,1.63,3.35,.06,.4,.24,.78,.33,1.17,.17,.79,.31,1.58,.46,2.37-.08,.08-.17,.15-.25,.23Z"/>
  </g>
  <g>
    <path class="cls-2" d="M134.85,89.66c2.63,.4,5.34,.29,8.01,.41,.22,0,.44,0,.65,.05,.57,.11,1.13,.25,1.81,.4-.19-.73-.25-1.26-.46-1.71-.67-1.4-1.44-2.73-1.98-4.21-.62-1.71-1.61-3.27-2.33-4.97-.81-1.92-2.06-3.64-3.65-5.06-.48-.43-.87-.99-1.41-1.3-.97-.56-2-1.05-3.06-1.43-1.07-.39-2.19-.87-3.3-.87-14.32-.06-28.64-.05-42.96-.02-1.76,0-3.56-.34-5.3,.29-.83,.3-1.78,.33-2.57,.7-1.47,.7-2.97,1.33-4.14,2.59-1.22,1.31-2.43,2.58-3.17,4.24-.5,1.11-1.06,2.19-1.58,3.29-.57,1.2-1.12,2.4-1.68,3.6-.54,1.15-1.04,2.33-1.64,3.45-.28,.51-.49,.87,.12,1.21,.26-.1,.46-.23,.67-.25,1.32-.13,2.66,.19,3.99-.3,.79-.29,1.7-.3,2.57-.35,1.88-.12,3.75,.06,5.64-.29,2.05-.38,4.17,.07,6.29-.31,2.4-.42,4.9-.42,7.35-.38,6.74,.13,13.49-.4,20.23,.28,3.12,.32,6.28-.23,9.43,.31,2.3,.39,4.68-.17,7.03,.33,1.77,.38,3.62,.02,5.47,.3Z"/>
    <path class="cls-2" d="M78.65,110.78c-.19-1.3-.78-2.38-1.63-3.35-.56-.65-1.19-1.1-2.01-1.42-1.33-.51-2.6-1.18-3.91-1.75-1.01-.44-2.03-.84-3.06-1.23-.99-.38-1.98-.77-3-1.07-1.01-.29-2.08-.38-3.08-.72-1.48-.49-1.71-.43-2.82,.55-.8,.7-.89,1.67-1.28,2.53-.17,.39-.27,.83-.33,1.25-.16,1.21,.02,2.44,.71,3.37,.61,.82,1.16,1.95,2.54,1.92,.52-.01,1.05,.22,1.58,.35,.81,.2,1.62,.43,2.44,.62,.61,.14,1.23,.22,1.83,.36,.76,.19,1.5,.48,2.27,.61,1.04,.18,2.1,.24,3.15,.35,.05,0,.11,0,.16,.02,.95,.21,1.89,.43,2.84,.64,.16,.03,.33,.01,.49,.04,1.21,.23,2.43,.47,3.64,.7,.08-.08,.17-.15,.25-.23-.15-.79-.29-1.58-.46-2.37-.08-.4-.27-.78-.33-1.17Z"/>
    <path class="cls-2" d="M85.58,108.02c.46,.94,.94,1.88,1.43,2.81,.83,1.59,1.63,3.21,2.55,4.75,.35,.59,.91,1.27,1.52,1.47,1.01,.32,2.14,.38,3.22,.38,7.58,.03,15.16,.03,22.74,0,.97,0,1.94-.2,2.91-.33,.12-.02,.22-.19,.34-.28,1.13-.83,1.65-2.09,2.27-3.26,.9-1.7,1.94-3.33,2.6-5.14,.09-.26,.24-.5,.41-.84h-40c0,.18-.05,.33,0,.44Z"/>
    <path class="cls-2" d="M105.17,31.13c-40.59,0-73.5,32.91-73.5,73.5s32.91,73.5,73.5,73.5,73.5-32.91,73.5-73.5S145.77,31.13,105.17,31.13Zm50.57,64.62c.75,.53,1.44,1.22,1.96,1.97,.57,.81,1.28,1.53,1.46,2.62,.13,.82,.66,1.57,.89,2.38,.21,.75,.37,1.54,.37,2.32,.02,11.79,.03,23.58,0,35.37,0,1.33-1.22,3.18-3.12,3.14-5.71-.11-11.43-.04-17.15-.04-1.24,0-2.47-1.21-2.47-2.44,0-1.35,0-2.69,0-4.04,0-.88-.57-1.44-1.46-1.44-18.8,0-37.6-.02-56.4,.02-2.01,0-4.01,.3-6.12,.47-.11,1.57-.22,3.2-.35,4.83-.03,.33-.08,.67-.21,.97-.53,1.27-1.64,1.61-2.86,1.62-5.5,.03-10.99-.02-16.49,.03-1.53,.01-2.34-.71-2.84-1.9-.24-.56-.34-1.21-.35-1.82-.02-11.46-.05-22.92,.03-34.38,.01-1.66,.48-3.28,1.15-4.9,.83-2,2.12-3.52,3.68-4.86,.98-.84,.7-1.85,.73-2.96-1.41,0-2.78-.04-4.14,.01-1.17,.04-1.98-.58-2.64-1.39-.24-.29-.12-.88-.14-1.33-.03-.79-.15-1.63,.69-2.13,.63-.38,1.26-.8,1.94-1.07,1.24-.49,2.52-.88,3.78-1.31,.13-.04,.27-.03,.41-.03,1.07,0,2.15-.03,3.21,.02,.29,.01,.73,.25,.8,.48,.21,.66,.32,1.37,.37,2.07,.06,.89,.01,1.78,.2,2.7,.05-.1,.14-.2,.13-.3-.06-.93,.09-1.66,.85-2.41,.61-.61,.79-1.65,1.14-2.52,.49-1.21,.95-2.44,1.44-3.65,.27-.67,.51-1.37,.88-1.97,.88-1.42,1.27-3.11,2.48-4.35,.32-.32,.34-.92,.64-1.27,.98-1.14,2.07-2.19,3.02-3.35,1.08-1.33,2.73-1.55,4.08-2.33,1.33-.77,2.92-.34,4.16-1.23,.18-.13,.54-.02,.81-.03,.19,0,.48,.04,.55-.06,.8-1.12,1.94-.46,2.92-.56,.85-.08,1.72-.02,2.58-.02,.25,0,.49-.01,.74-.01,12.26,0,24.52-.01,36.78,.01,1.74,0,3.53,0,5.2,.39,1.28,.3,2.7,.03,3.89,.88,.42,.3,1.1,.37,1.65,.34,1.1-.07,1.89,.63,2.76,1.05,1.09,.54,2.29,1.11,3.06,1.99,1.07,1.23,2.33,2.36,2.92,4.02,.27,.75,1.06,1.3,1.36,2.16,.43,1.19,1.02,2.34,1.56,3.49,.34,.73,.76,1.42,1.08,2.16,.33,.75,.58,1.55,.88,2.31,.36,.89,.74,1.76,1.12,2.64,.2,.45,.4,.91,.6,1.36,.06-.02,.13-.04,.19-.07,.24-1.1,.45-2.22,.76-3.3,.07-.26,.5-.58,.78-.59,1.23-.06,2.48-.07,3.71,.03,.54,.04,1.08,.36,1.59,.62,1.25,.64,2.64,.97,3.72,2,1.58,1.5,.85,3.01-.69,4.02-1.25,.82-2.54,.99-3.95,.89-.38-.03-.76,0-1.16,0-.19,1.09-.19,1.99,.82,2.72Z"/>
    <path class="cls-2" d="M152.16,102.2c-.31-.51-.88-1.12-1.39-1.18-.88-.11-1.83,.1-2.72,.31-1.03,.24-2.03,.61-3.03,.95-.49,.17-.97,.38-1.46,.58-.86,.35-1.72,.72-2.58,1.06-.77,.3-1.56,.54-2.31,.88-.98,.44-1.89,1.1-2.91,1.4-1.17,.34-1.8,1.17-2.32,2.07-.5,.86-.68,1.89-1.08,2.82-.47,1.07-.7,2.16-.55,3.52,.6-.16,1.12-.34,1.67-.43,.85-.14,1.71-.23,2.57-.34,.94-.12,1.88-.22,2.82-.34,.15-.02,.3-.07,.45-.11,.6-.18,1.2-.42,1.81-.53,.96-.17,1.94-.22,2.9-.36,.59-.08,1.18-.18,1.75-.34,1.49-.41,2.94-.98,4.46-1.24,.73-.12,1.17-.43,1.64-.88,.7-.67,1.31-1.36,1.38-2.39,.05-.86,.36-1.77,.19-2.57-.22-1-.74-1.97-1.28-2.86Z"/>
  </g>
</svg>